/* XPM */
static char *exit1703861561[] = {
/* columns rows colors chars-per-pixel */
"50 50 45 1 ",
"  c #040404",
". c #0B0B0B",
"X c #141414",
"o c #1C1C1C",
"O c #232323",
"+ c #2C2C2C",
"@ c #333333",
"# c #3B3B3B",
"$ c #434343",
"% c #4B4B4B",
"& c #545454",
"* c #5C5C5C",
"= c #636363",
"- c #6B6B6B",
"; c #6F706F",
": c #747474",
"> c #7C7C7C",
", c #838383",
"< c #888887",
"1 c #8B8B8B",
"2 c #90908F",
"3 c #939494",
"4 c #9B9C9B",
"5 c #9FA0A0",
"6 c #A3A3A3",
"7 c #ABABAB",
"8 c #B4B4B3",
"9 c #BCBCBC",
"0 c #C4C4C4",
"q c #CBCBCB",
"w c #CFCFD0",
"e c #D4D4D4",
"r c #D7D8D7",
"t c #DBDBDB",
"y c #E0E0DF",
"u c #DFE0E0",
"i c #E4E4E4",
"p c #E8E8E7",
"a c #EBEBEB",
"s c #F0F0EF",
"d c #F3F3F3",
"f c #F8F7F7",
"g c #F7F7F8",
"h c #F7F8F8",
"j c #FAFAFA",
/* pixels */
"yadtrrae4ugt84336878844qiipppapaaassuwe82q075pt4rt",
"dhhdart70dae72226668637wtuittuttetpppaspq7>6,qi8gg",
"jjjjpe5,0puw8115556858wew088897899wetuadgs77836rgg",
"jjjjjr17ruq96<23334758096433664355590tupsdt39w9agg",
"jjhdw9rirq873,<112362564533665789q9998ettap67aetjj",
"jhfd68at99771,<11342>,:,>>><176668qwt04etua0,t78wp",
"tfdfq4eq0876,;,2<13<::;-=;:>>,>>,1468964eupi99eit8",
"088989899783--11,,,:;-=*=--=***-><<1687<6eupaaggjd",
"he8240997752--<>>;-==***&&$$$$%*=:>>,26888tipddggj",
"hhpq00wq643>=;>:*&&&%%%$$$#@##+$&==-;,16064epadggj",
"ffape0w041,;*-;=&&#######$#####$%*==;>146984rsssff",
"jdsyqwq82<>-=--&&$@OO+#@@#@@+@##$&*=-:4788846rasdj",
"fdaw0q84>>;***&%$@++oO+@+@+oO@@@@##$&=>4700048epsd",
"gspq093,=-*$$$$$#+O+OooOOoOoOOoO+##%&&=:<58q870iss",
"dsp093>>-=*$$#@#+oOOOoXooooXoXoO+##$%%&*->28929wid",
"api0833>-**$@@@@ooOooXXooXXXoooooO+@#$%&*;,3349qti",
"iiuq863>*&&@++@@ooooX..XXXXXXXoooOoo++$&&=>>,8qqqy",
"iitq72<>*&$+O@+OoXoXX.......XXoXXoOOOO+$*=;=,47q0w",
"turq741:*%#+O@+Oo...X . . ......Xoo+@@+@$&-;,12800",
"rtrq631>&%$+OOOOo....       ....XoO++@@@$%*=,33379",
"trq93,,;*%$@oOooX.  .          .Xooo+@@#%*=*>14369",
"tr871::=%%$@oOoXX.               ..XO+@@$*=*=>,469",
"rr881--=&##@OoXXX.            . ...Xoo@#$%*;-->356",
"tt973-==*#@@OooX...            ..XXooX+@#%=:>-:146",
"uuw53;=*&$@+OoooX..             .XXoOoO@$&*:>>:<35",
"tyr71>=*&$@OoXXXX..             ..XoOOO@#&*;><>,34",
"ryr9<>=&%#@@ooooX..            ...XoO+OO@$*:,<,>24",
"q0q8>==&##@@+OXXX.             ...XXoOo+#%*:>,,,34",
"6387>-&%@#@+OooXX.. .         ..XXXoOOo@$*->11><<,",
"q477,-=&##@#+oooXX..           .XoooO@@#%=::,>>->3",
"0<1221>=%#+@@+OoooX.. .    . ..XXooO+@@$&*-=,3<<13",
"54<3622>*#+##@+OoX.X  .    ..X.XXooO@##%&=;>37764:",
"35744>31;&$##@@OXXX.X... ...XXooXOo+###%&=>4777961",
"4764:,3>:=*%##@OOoooXXX...X.XoXoXoo@@#$&==:5900q84",
"7wq74,11>=**%#@OOOOooo..XXXXoooXo+O@@@$*==:49eee07",
"19ie73341:=*&$@O+++OOo.ooooXooooo@+###%===-,0rtuq6",
"430q4<6464>;=&#@OOOoooOo+OoOOo+O@@@#$$*:,:=:70e04<",
"51149009851:=&%@@#@+O+@+++OOO+@+@####%=<3>-1347971",
"3004wrrq861:-=&%%$$##@@@@+oO@####%%$*=:584>3<2qt02",
"7q73qtwq974,>:=*&&%%##+@+O+#$%#%&*&*-->704,74>6946",
"71:7wew09741>>>===**%#@+O@#%&%%===->>:299438e04773",
"978999986312,:>>:::;*$#$%%&%&*==*=;1>;298696as8qt5",
"0euw9876431,1,>,,>>;*$&**&**-:>---:,,4277789ss98uw",
"tidae0865431,,::::-;=&--=-=>142,:,,,6983674tsse5ri",
"fdgfsuq876531<>;>,,,;:,>>>147843,<<46668etwuddi88y",
"afjgdsuw9864442,3331,<123370976773<3742wppuepds6=4",
"wrgjjfsat07<4414887,145780q089qq96>3860uiaaiss0471",
"rw7qdjgfat7444<7777439qqee09qerttrq35rewiasgs02t07",
"gd4#7qw99w4267289000670wwq9wtyiutut93w98asgt877w,0",
"id0>7,6078e9,439qqqq93490qtpaiiipias7347uai39d0116"
};
