/* XPM */
static char *result[] = {
/* columns rows colors chars-per-pixel */
"50 50 53 1 ",
"  c #313131",
". c #474746",
"X c #4A4B4A",
"o c #565656",
"O c gray36",
"+ c #636363",
"@ c #6C6C6B",
"# c #6F706F",
"$ c #747473",
"% c #777877",
"& c #787778",
"* c #7C7C7C",
"= c #848484",
"- c #878887",
"; c #8B8B8B",
": c #8F908F",
"> c #8F9090",
", c #949494",
"< c #979897",
"1 c #989798",
"2 c #979898",
"3 c #9C9C9C",
"4 c #A3A3A3",
"5 c #A8A7A7",
"6 c #A7A8A7",
"7 c #ACACAC",
"8 c #B4B4B4",
"9 c #B7B8B8",
"0 c #BCBCBC",
"q c #BFBFC0",
"w c #C3C3C3",
"e c #C7C8C8",
"r c #CCCCCB",
"t c #CFD0CF",
"y c #CFCFD0",
"u c #D4D4D4",
"i c #D7D8D7",
"p c #D8D8D7",
"a c #D7D8D8",
"s c #DBDBDB",
"d c #DFE0DF",
"f c #E0E0DF",
"g c #E4E4E4",
"h c #E8E7E7",
"j c #E7E8E7",
"k c #ECECEC",
"l c #F0EFF0",
"z c #F4F4F4",
"x c #F8F7F7",
"c c #F7F8F7",
"v c #F8F8F7",
"b c #F7F8F8",
"n c #FEFEFE",
/* pixels */
"fkzsaikr,gvd4===qnnnr=-annnnnnnnnnnnkya5*e062ga,ps",
"zvvkkas40bvs6*=1snnz7;5knnnnnnnnnvnnnnnzw6@1%rg8zn",
"nnnvhu,@0zzvg;4gnnnx3rzvnnnnnnnzzfznnnnnnz347;3ubv",
"nnnnnu*1gnnnb40bnnnk7gzvnnnnng0696,rsvnnnns=8e9kxv",
"nnnzr8aznnnns,knnnng4ursnnnnr7udzzwww0znnnz<3kuann",
"vnnz25nvzvnnwrnnnnns*5@4wirw5vnnnnnnna>knnnw$s55eh",
"avvnr=gnvnnz69vnnnnj02=,8ruwknnnnnnnnn0,znnz90iga7",
"q77868rknnnz17znnnnjwuisvnnnnnnnnnnnnnk*6znnvvnnnx",
"nr5*;skznnnn98nnnnzr8iznnnnnnkgvnnnnnnnz08knnnnnnn",
"nnzurkvnnvvz0,bnnnzsiynnnnnnz59znnnnnnnnn7,knnnnnn",
"nnzvnzvnnssz04nnnnvvssnnnnnnguznnnnnnnnnnnw,knnnnn",
"nnnnnnbvgaknw0nnnnnzugnnnnnnnvnnnnnnnnnnnnz80znnnn",
"nnnnnzwi7yzz,4znnnnz85knnnnnnnnnnnnnnnnnnnnv7gnnnn",
"nnnnnr4,&240;wznnnnzw+;knnnnnnnnnnnnnnnnnnnne9nnnn",
"nnnnk=$q0waikzknnnvg3*75rnvnnnnnnnnnnnnnnnnnp*unnn",
"vnnng3rzvnnnnbknnnng9gbr7knnnzgzvnnnnnnnnnnz6,pznz",
"znnnv8innnnnnnnnnnnnnnnzrgnnna3ugznnnnnnnnnw:glnnz",
"vnnnz,3nnnnnnnnnnnnnnnnnkgbvnfr0gvnnnnnnnns+tktvnb",
"znnnb07nnnnnnnnnnnnnnnnnnvkiukgwfvnnnnnnnnz,0srlxl",
"znnnnu0nnnnnnvnnnnnnnnnnnnza9sr5gzcnnnnnnnnwgzkeuh",
"vnnnnwsnnnnnnnnnnnnnnnnnnnvzq873snzknnnnnncrzvk9uz",
"nnnng8nnnnnnnnnnnnnnnnnnnnnz8+,0lxg0uknnkk7<gk0qbn",
"nnnnz0znnnnnnnnnnnnnnnnnnnnnsrkkiq7479wr1*&qri0ihk",
"nnnnneinnnnnnnnnnnnnnnnnnnnnnnnnw@;4,30;==0vkggnzz",
"nnnnnsrnnnnnnnvnnnnnnnnnnnnnnnnnz99hsvk0uzvnnnnnnn",
"nnnnns0nnnnnnnnnnnnnnnnnnnnnnnnnns9nnnzgvnnnnnnnnn",
"nnvzgw5znnnnnnnnnnnnnnnnnnnnnnnnz0rnnnnnnnnnnnnnnn",
"kikg3$6rzznnnnnnnnnnnnnnnnnnnvnnz9rnnnnnnnnnnnnnnv",
"4;sr*5;54qyzzgknnnnnnnnnnnnvkknnnrwnnnnnnnnnnnnzs9",
"j5yw=-5bu=+,2#9knnnnvnnnnnvzkgnnns3knnnnnlvi707-3s",
"r&;1;7snvy,3r83azvnnnnnnnnzzvzvnni@7vnnnlww=0u0eah",
">,;9w,snz4&inl18agzkkvnnnnnnnnnnns,svnnnzi68kkgvs$",
"=:7iw#snb08xnna$o6zrdnnnnnnnnnnnnz0kvnnnng6kzsakf4",
";416=,knnbznnnw*wszkvnnnnnnnnnnnnnquvnnvzs3znkzzse",
"3ai5rsznnnnnnn79nnnnnnnnnnnnnnnnvn08nnvyw6;znnnnls",
"%8vzq0kbnnnnnn7ennnnnnnnnnnnnnnnnz4snnvr-@o7vnnnz0",
"==qa,&rznnnnnh8gnnnnnnnzvnnnnnvnnrrnnnvbs,o%eshr;$",
",#%;0ikvnnnz9,snnnnnnnngsg0usr8560nnnnnvg;@8;-797$",
"*rr;fnnnnnnw4knnnnnnnswss,9w0sgsiznnnnnbkw,1$&ikw*",
"4a7=gnnnnnn9wnnnnnnnz0+30wzvnnnnnnnnnvznnu,7;O,0>,",
"3%.0vnnnnnng3unnnnnnz7,;7znvnnnnnnnnzrrzns,8fw;44=",
"940gnnnnnnnnk1gnnnnns,6ufgznnnnzw4sn0@4hvgw,zn8es>",
"0izcnnnnnnnnns7nnnnnr=wzzznnnnn90e5r;8=rdr90nn95gy",
"ignnnnnnnnnnnnwsnnnn9Orznnnnnnnu3f,,0q0,74-gnbu>ag",
"zbnnnnnnnnnnnng0vnnn;1lnnnnnnnnz8;,434,0lkuhnnk45f",
"kxnnnnnnnnvznng7knnr6rjnnnnnnnnvk4&*6;*knzgukvl3X,",
"rsbnnnnnnzr,ik6wnnn6wrsnnnnnnnnnv0o=71svlxxkblw>4=",
"sr5wznnnzk6408,znnn0,gvnnnnnnnnnnza=,ksplzxnz0=uw5",
"zz1 6rr09r;%30*gnnnz56jzvnnnnnnnnnnw*u77zzns734r*w",
"gz0%4&1057r8+-*wznnng*,innnnnnnnnnnn4*-4gzg;9zw-=4"
};
