/* XPM */
static char *teardrop1703861561[] = {
/* columns rows colors chars-per-pixel */
"50 50 53 1 ",
"  c #020202",
". c #0C0C0C",
"X c #141414",
"o c #1B1B1B",
"O c #232323",
"+ c #2C2C2C",
"@ c #333333",
"# c #3C3C3C",
"$ c #444444",
"% c #4B4B4B",
"& c #535353",
"* c #5C5C5C",
"= c #646464",
"- c #6C6C6C",
"; c #737373",
": c #777877",
"> c #787778",
", c #7C7C7C",
"< c #848484",
"1 c #878887",
"2 c #8B8B8B",
"3 c #8F908F",
"4 c #949494",
"5 c #979897",
"6 c #989897",
"7 c #989798",
"8 c #9B9B9B",
"9 c #A3A3A3",
"0 c #A8A7A7",
"q c #A7A8A7",
"w c #ACACAC",
"e c #B3B4B4",
"r c #B7B8B8",
"t c #BCBCBC",
"y c #BFBFC0",
"u c #C4C4C4",
"i c #C7C8C8",
"p c #CBCBCB",
"a c #CFD0CF",
"s c #CFCFD0",
"d c #D4D4D4",
"f c #D7D8D7",
"g c #D7D8D8",
"h c #DBDBDB",
"j c #E0E0DF",
"k c #E4E4E4",
"l c #ECECEC",
"z c #F0EFF0",
"x c #F4F4F4",
"c c #F8F7F7",
"v c #F8F8F7",
"b c #F7F8F8",
"n c #FEFEFE",
/* pixels */
"jlxhfflp7jnh9<,<unnnp<2gnnnnnnnnnnnnlag0,ir97kg7dg",
"xcbllfh9ybbh9,16hnnx0<9lnnnnnnnnncnnnnnxi9-8:pkecn",
"nnnbls4-rxxbk29knnnc9pxbhxnnnnnxxkxnnnnnnx99w28dvv",
"nnnnnd,8knnnb9yvnnnlwkxb8pnnnlt9r97igbnnnnh<eprlxn",
"nnnxpefzbnnng4lnnnnk9dph+*nnpwakxxiiirxnnnx78ldgnn",
"bnnx70nbznnnupnnnnnh,0-9X+py0bnnnnbnng2lnnni;h9wpk",
"gnbnp<knbnnx0rbnnnnlt7<&.O7ulnnnnnnnnnr8xnnxrrdkdw",
"t0wr9eplnnnx8wxnnnnkudi+XX=bnnnnnnnnnnl,9xnnbbnnnc",
"np0,2glxnnnnrennnnxaed<oXX-wnlkbnnnnnnnxtelnnnnnnn",
"nnxdplbnnbbxr8cnnnxgdu%XX.*=lqrxnnnnnnnnnw4lnnnnnn",
"nnvbnxbnnhgxr9nnnnnbj*$XXX@82dxbnnnnnnnnnnu4lnnnnn",
"nnnnnnbbkglnutnnnnnx9;oXXXX9;hnnnnnnnnnnnnvwtxnnnn",
"nnnnnxpdwdxx79xnnnnl#*XXoXX=r&nnnnnnnnnnnnnbwknnnn",
"nnnnnp87>59t2uxnnnn&4OXXoXo@u2<nnnnnnnnnnnnnirnnnn",
"nnnnl<;ttuddlxlnnn8&=XXXXoXo8p%dnnnnnnnnnnnng<dnnn",
"bnnnk8pvbnnnnvlnnhXe+Xoooooo*p9+xnnnnnnnnnnx03fxnx",
"xnnnbwdnnnnnnnnnbo2;OXoooooo@rp-%xnnnnnnnnnu3kzncx",
"bnnnx78nnnnnnnnn*@i+ooOOO+OOO7fw+9nnnnnnnng=alavnn",
"xnnnbywnnnnnnnnt 9<OoO++++++O-pi;Xknnnnnnnx5yhplcx",
"xnnnnaunnnnnnbx $d#o++++@@@++%tg0+#nnnnnnnnukxlidk",
"bnnnnugnnnnnnn=.99++@@@@#@#+++whr-X9nnnnnnvpxblrdx",
"nnnnkrnnnnnnnh $d;@@#####@@+++2dp9Oodlnnllw6kltucn",
"nnnnxrxnnnnnn$X<d$@#####@@@@++-ih0&X-rui8<>ypdtdkl",
"nnnnnpdnnnnng #er#########@+++&ygr,XX9t1<,rvlkknxx",
"nnnnngdnnnnn=.&d4$#$$$$##@@+++#rgi8oX4ltdxbnnnnnnn",
"nnnbnhtnnnnb +;d,%$%%%$$###+@++efd9+XOxkbnnnnnnnnn",
"nnbxku9xnnnu #2d-%%%%%%$$##@@++wdfw$XXhnnnnnnnnnnn",
"ldxk9;0pzxn<.&4p=&%&&&%%$$##@++wdde&XXwnnnnnnnnnnb",
"92gp,92q9ys#X*8p=&***&&&%%$##++wdgr&XX>nnnnnnnnxgr",
"k0du<<0ba<=Oo&8u=******&&%$$##+edfe&oX%nnzbdwtw29h",
"p>372whncp4oO&3y-**==****&%%$##rgge%Xo+nzii<tatifk",
"271ru7hnx9>OO*<e===**===**&%$##udde$Xo+nxd9ellkcj;",
"<3wdi-hnntwOO*;9==***==-=**&%$&idaw+oO$nnk9lxhglj9",
"2980<4lnncx$o*=2===***====**%$;psi4XO+-xxh8xnlxxhi",
"8gf0pgxnbnn<X&*>===***=--=**&%:pir=O++9pu02xnnnnzg",
":ebxytlbnnnpo#*====**==---==***2yw@O@+dp<-*wbnnnxt",
"<<yd7:pxnnnx@+**=-====----===**&0<O@##xcj4&:iglp2;",
"4-:2ydlbnnnz>o&**=----;-;;--*&%$*#@##9nnk2-w21wrw:",
",ap2jnnnnnnie@#***==;;::;-=*&%%@@#$$$xnczi47;>dzi>",
"9gw<knnnnnnei4O&****===-==*&&%$##$%%rccbnp4w3*7r34",
"8>$rbnnnnnnk8d&@*******&***&&%$%&&&1xppxnh3eji289<",
"r9tknnnnnnnnl8k&$=******&*&&&&&***2br-9lbku7xneph4",
"tgxvnnnnnnnnnh0l=&==**&*&*&***==;9rp3e,pjprtnnr0ks",
"fknnnnnnnnnnnnyhx7=----====--;:7yk74ryt4w91knbd3dk",
"xbnnnnnnnnnnnnkrbnh<;:,,,,<<29ile239897tzldknnl90j",
"lbnnnnnnnnxxnnkelnnde9<,<28wgxnbl9>,92>znxkdlbx8%7",
"pgbnnnnnnxd4dl9innn9upgnnnnnnnnnnr*,08hbxxclczy49,",
"gp0ixnnnxl99te4xnnnt7jbnnnnnnnnnncf<7lhfzxcnxt<du0",
"cx7@9pprep2:8r,jnnnx0qkvnnnnnnnnnnnu,dwwxxngw99p,i",
"kxy:9>8y0wae=2,uxnnnk,4dnnnnnnnnnnnn9,19kxk2rzu<<9"
};
