/* XPM */
static char *eye1703786280[] = {
/* columns rows colors chars-per-pixel */
"50 50 142 2 ",
"   c #000203",
".  c #070808",
"X  c #0C0C0C",
"o  c #12120F",
"O  c #110F10",
"+  c #151112",
"@  c #1A1515",
"#  c #1D1B15",
"$  c #1B1718",
"%  c #1C1A1B",
"&  c #221D1C",
"*  c #23211B",
"=  c #28201F",
"-  c #2A281F",
";  c #211F20",
":  c #252324",
">  c #2D2221",
",  c #2E2B22",
"<  c #2D2C2D",
"1  c #322625",
"2  c #342B25",
"3  c #392E27",
"4  c #342728",
"5  c #3B2D2A",
"6  c #363126",
"7  c #3B352B",
"8  c #343333",
"9  c #393635",
"0  c #3D3C3C",
"q  c #44342E",
"w  c #433B2D",
"e  c #473530",
"r  c #4A3632",
"t  c #463C30",
"y  c #4B3C33",
"u  c #513C36",
"i  c #4D4234",
"p  c #524137",
"a  c #514A37",
"s  c #57443A",
"d  c #59443B",
"f  c #594F39",
"g  c #5E523C",
"h  c #604C3E",
"j  c #454444",
"k  c #4B4A4B",
"l  c #545455",
"z  c #5B5454",
"x  c #575758",
"c  c #585758",
"v  c #575859",
"b  c #5C5B5C",
"n  c #614540",
"m  c #694A43",
"M  c #6A5246",
"N  c #67524C",
"B  c #795B4E",
"V  c #635852",
"C  c #74614B",
"Z  c #7C6550",
"A  c #7D6952",
"S  c #605E60",
"D  c #646364",
"F  c #676867",
"G  c #676769",
"H  c #6A6769",
"J  c #6C6B6C",
"K  c #6E6E70",
"L  c #706E70",
"P  c #737373",
"I  c #7A7572",
"U  c #767678",
"Y  c #787778",
"T  c #7B7B7B",
"R  c #835B56",
"E  c #856556",
"W  c #916B5E",
"Q  c #8E725B",
"!  c #987363",
"~  c #A5806A",
"^  c #AA896D",
"/  c #7F7F80",
"(  c #7F8081",
")  c #838384",
"_  c #8B8787",
"`  c #878887",
"'  c #868788",
"]  c #888788",
"[  c #87888A",
"{  c #8B8B8C",
"}  c #908786",
"|  c #8F908F",
" . c #8F8F90",
".. c #8F9090",
"X. c #939494",
"o. c #979897",
"O. c #969798",
"+. c #989798",
"@. c #979898",
"#. c #9B9B9B",
"$. c #A09F9F",
"%. c #A89F9F",
"&. c #A3A3A3",
"*. c #AAA5A5",
"=. c #A7A8A7",
"-. c #ACACAC",
";. c #B1ADAD",
":. c #AFAFB0",
">. c #AFB0B0",
",. c #B4B4B4",
"<. c #B7B8B8",
"1. c #BBBCBC",
"2. c #C2BFBE",
"3. c #C0C0BE",
"4. c #BFBFC0",
"5. c #BEC0C0",
"6. c #C4C4C4",
"7. c #C7C8C8",
"8. c #CCCCCC",
"9. c #CFCFD0",
"0. c #CFD0D0",
"q. c #D4D4D4",
"w. c #D8D5D5",
"e. c #D7D8D7",
"r. c #D7D8D8",
"t. c #DBDBDB",
"y. c #E1DEDE",
"u. c #E0E0DF",
"i. c #DFDFE0",
"p. c #E0DFE0",
"a. c #E4E4E4",
"s. c #EAE5E5",
"d. c #E7E7E8",
"f. c #E8E7E8",
"g. c #ECECEC",
"h. c #F0EFEF",
"j. c #EFF0F0",
"k. c #F4F4F4",
"l. c #F8F7F7",
"z. c #F8F8F7",
"x. c #F7F8F8",
"c. c #FDFDFD",
/* pixels */
"u.g.k.r.e.r.g.8.o.t.c.t.&.) ~ ( 5.c.c.x.8.) { r.c.c.c.c.c.c.c.c.c.c.c.c.g.q.r.=./ 7.1.&.o.d.e.o.e.e.",
"k.z.z.k.f.r.t.&.1.z.c.t.&.T ) o.i.x.c.j.=.' &.g.c.c.c.c.c.c.c.c.c.z.c.c.c.c.c.k.7.&.H #.Y 7.a.,.l.c.",
"c.c.c.z.d.q.X.J 1.k.k.c.d.{ &.d.c.c.c.x.$.8.k.l.c.c.c.c.c.c.c.x.k.p.k.c.c.c.c.c.c.k.$.&.-.{ #.e.l.z.",
"c.c.c.c.c.q.T #.a.c.c.c.z.&.1.x.c.c.c.g.-.a.k.x.c.c.c.c.c.f.1.&.<.&.o.7.r.z.c.c.c.c.t.' ,.7.1.f.k.z.",
"c.c.c.k.8.,.r.k.z.c.c.c.r.X.g.c.c.c.c.a.&.q.8.i.c.c.c.c.8.=.q.a.k.k.7.7.6.1.k.c.c.c.k.o.#.g.q.e.c.c.",
"c.c.c.k.o.=.c.z.k.z.c.c.6.8.c.c.c.c.z.r.1.e.t.t.t.t.t.e.8.e.i.k.c.c.z.c.c.r.{ g.c.c.c.7.P t.&.-.8.f.",
"r.z.z.c.8.) d.c.c.c.c.k.=.1.z.c.k.a.i.f.g.k.k.j.k.h.g.g.d.a.r.0.q.d.c.c.c.c.1.#.k.c.c.k.,.<.e.d.e.-.",
"1.-.-.,.=.,.8.f.c.c.c.k.#.-.f.a.d.g.k.k.z.z.x.z.z.k.k.k.k.k.f.d.t.8.6.a.c.c.f.T &.k.c.c.c.z.c.c.c.k.",
"c.8.-.T { r.g.k.c.c.c.c.1.8.a.g.k.c.z.c.c.c.c.c.c.z.z.z.l.l.k.k.g.a.e.6.7.l.c.k.1.,.k.c.c.c.c.c.c.c.",
"c.c.k.q.8.g.c.c.c.z.c.g.r.g.k.z.c.c.c.c.c.c.c.c.c.c.z.c.c.z.z.k.k.g.a.q.7.1.h.c.c.-.X.f.c.c.c.c.c.c.",
"c.c.k.z.c.k.z.c.z.r.r.d.k.k.c.c.c.c.c.c.z.c.c.c.c.c.c.c.c.c.c.l.k.k.g.d.t.7.<.s.c.c.6.X.g.c.c.c.c.c.",
"c.c.c.c.c.c.l.l.d.e.a.k.c.c.c.c.c.c.c.c.c.c.c.c.c.c.c.c.c.c.c.c.z.k.k.g.a.r.7.;.s.c.k.,.1.k.c.c.c.c.",
"c.c.c.c.c.k.7.e.:.r.k.k.c.c.c.c.c.c.c.c.c.c.c.c.c.c.c.c.c.c.c.z.c.x.k.j.d.a.e.6.;.l.c.z.-.a.c.c.c.c.",
"c.c.c.c.c.8.#.o.,.g.z.c.c.c.c.c.c.c.c.c.c.c.c.c.c.c.c.c.c.c.c.c.z.c.k.k.f.d.t.8.1.1.c.c.7.,.c.c.c.c.",
"c.c.c.c.g.) P 6.d.k.c.c.c.c.c.c.c.c.c.c.c.c.c.c.c.c.c.c.c.c.c.x.z.l.k.k.g.f.y.e.7.&.t.c.r.) e.c.c.c.",
"z.c.c.c.d.#.7.u.g.l.c.c.c.c.c.c.c.c.c.c.c.k.k.d.a.a.d.j.k.l.c.l.z.k.k.k.g.d.a.r.8.,.&.k.*...e.x.c.x.",
"k.c.c.c.z.-.e.f.k.c.c.c.c.c.c.c.c.c.c.z.f.,.J j t 9 0 J ,.a.l.l.l.l.k.h.g.g.p.t.9.1.+.%.{ d.k.z.z.k.",
"z.c.c.c.k.+.8.g.z.c.c.c.c.c.c.c.c.c.k.7.l : : k l 9 % X % l 6.h.l.l.k.h.g.d.p.t.8.1.#.U q.g.8.z.c.z.",
"k.c.c.c.z.6.d.k.c.c.c.c.c.c.c.c.z.k.:.8 < L 6.y.6.S ; @ @ % < ;.h.k.l.j.h.g.p.r.8.4.$.T -.t.8.g.z.k.",
"k.c.c.c.c.q.g.k.c.c.c.c.c.c.c.l.l.6.9 8 ;.g.z.h.2.b = & 3 O O < 4.k.k.j.h.d.p.r.9.1.$.T &.k.g.7.e.f.",
"c.c.c.c.c.q.g.k.c.c.c.c.c.c.l.c.d.l 9 *.h.l.w.I V 7 & 3 5 @ @ $ l p.l.k.h.g.a.t.9.1.&.T ' c.g.<.q.k.",
"c.c.c.c.f.r.k.l.z.c.c.c.c.c.c.k.;.% D y.h.*.9 7 i 7 * w q 3 = @ ; :.j.k.h.g.a.t.9.1.#.T J f.1.6.k.c.",
"c.c.c.c.k.p.k.z.z.c.c.z.c.l.c.h.H < { 2.*.f 1 # * # 6 g q 2 & 1 % S g.k.h.g.a.p.9.<.#.Y b r.1.r.d.g.",
"c.c.c.c.c.p.k.l.c.c.c.c.c.l.l.a.0 % z } V 2 , .     X w f d q & X 0 i.k.h.g.a.t.8.,.X.U b a.d.z.k.k.",
"c.c.c.c.c.y.k.l.l.c.c.l.l.z.l.t.9 4 u N h 7 o         - 7 6 e 3 @ < r.k.h.f.a.r.7.-.{ P b c.c.c.c.c.",
"c.c.c.z.c.t.g.x.c.z.l.c.l.c.x.i.8 & 5 q s w &         # 7 p u y % 8 e.h.g.f.p.e.4.$.' P b c.c.c.c.c.",
"c.c.c.k.d.t.g.k.z.c.c.l.x.l.l.a.j & q u p w w .     . 7 w y d 3 & 0 t.j.g.f.t.8.<.#.) K v c.c.c.c.c.",
"f.r.g.d.&.r.g.k.l.l.l.k.k.k.x.h.D & 1 q y w i a 7 , f w h B 5 > $ S f.k.g.a.t.8.:.X.T H c c.c.c.c.z.",
"&.[ i.0.T 5.d.j.k.l.l.l.x.l.l.k.*.% > 1 @ 1 h Z A C Q Z M W r @ % &.j.g.g.i.r.5.&.{ U D D c.c.k.r.1.",
"d.=.9.5.~ 4.i.j.h.k.k.k.k.l.z.l.a.k O + & q h E Q Q ^ ! B r & X j r.j.g.d.t.9.<.#.) P S H 1.>.' #.t.",
"7./ O.O.( 4.r.d.g.h.k.k.l.l.k.l.k.1.< + + 3 m W E ! W R u 1 @ 4 >.j.j.d.i.q.6.-. .T H b ) q.1.8.r.f.",
" .X.( 4.5.$.5.i.f.g.g.h.k.k.x.l.k.j.&.: + > r n n R q u > @ < $.d.g.g.d.t.0.<.$.) P D l 8.g.p.z.u.P ",
"( ..>.q.7.J 3.q.a.d.f.h.k.k.k.l.k.l.h.,.j ; : 4 & 4 + & % j :.d.j.g.d.i.q.6.=. .T K S G x.t.r.g.u.&.",
"[ &.@.=.) X.q.3.e.t.d.f.g.k.k.k.l.l.k.k.i.*.S 0 < < 8 b %.r.j.g.f.f.i.e.7.:.O.) K D l :.c.g.k.k.t.7.",
"#.t.r.-.8.r.h.<.7.e.p.d.f.h.h.k.k.l.k.l.l.j.g.t.9.9.t.s.g.j.j.g.a.i.e.7.<.$.' U J b v j.c.c.c.c.h.t.",
"U >.x.j.6.1.g.r.=.7.e.y.d.f.g.g.h.j.j.j.j.k.k.h.h.j.j.h.j.g.d.a.i.q.8.<.&.{ T K S l l -.z.c.c.c.k.1.",
") ) 6.e.X.U 8.k.<.*.6.9.r.p.a.f.g.g.g.j.h.j.j.j.g.g.h.g.g.p.i.t.9.7.,.$. .Y L D c D x U 7.r.d.8.{ P ",
"X.K U [ 1.e.f.c.x.X.$.<.7.8.r.t.i.d.d.d.d.g.g.d.d.s.p.a.p.t.q.9.4.:.#.] T L D b D ` J -.{ { -.1.-.P ",
"T 8.7...u.c.c.c.c.a.' X.=.,.6.8.9.r.r.i.i.i.i.i.i.i.r.w.9.9.4.,.&.O.' T L G v v 8.7.o.+.J T q.g.7.T ",
"=.r.-.) d.c.c.c.c.c.t.Y ' +.&.=.,.4.6.7.7.9.8.9.7.7.6.1.<.:.&.O.{ ) U J G b b 0.c.8.o.=.| b o.1.| o.",
"#.U j 1.c.c.c.c.c.c.c.0.P T )  .O.$.&.*.-.:.:.:.-.=.&.$.@.X.[ / U P H D v b 1.k.c.t.| ,.u.7.{ #.$.) ",
",.&.1.d.c.c.c.c.c.c.c.c.y.P J T ) [  .X.X.X.X.X.X. . .{ ) / T P J F b x J F &.f.z.d.6.o.k.c.,.8.t.X.",
"1.r.k.z.c.c.c.c.c.c.c.c.c.t.X.Y J P T / / / / ) / / T Y U K H F b c v #.| >.T 8.t.8.<.1.c.c.<.=.a.8.",
"e.a.c.c.c.c.c.c.c.c.c.c.c.c.2.r.5.Y D H K K K P L K J H D D b l b &.o.X.<.6.1.X.;.&.[ a.c.z.e.{ q.d.",
"k.x.c.c.c.c.c.c.c.c.c.c.c.c.d.1.k.c.i.=.D b b S b b b c b U &.q.,.{ X.&.#.&.o.1.h.g.q.f.c.l.f.&.=.u.",
"h.z.c.c.c.c.c.c.c.c.z.k.c.c.a.>.k.c.c.8.=.0.f.c.c.c.c.c.c.c.c.z.g.&.T T &.{ T g.c.k.d.e.k.z.k.$.k o.",
"8.r.z.c.c.c.c.c.c.k.q.X.q.h.&.6.c.c.c.&.6.8.r.c.c.c.c.c.c.c.c.c.x.4.v ~ -.#.t.z.k.k.z.f.k.h.6. .&.T ",
"r.8.=.7.k.c.c.c.z.f.&.&.1.,.X.k.c.c.c.1.#.i.z.c.c.c.c.c.c.c.c.c.x.k.r.( o.f.y.r.g.k.l.c.k.1.) e.7.&.",
"l.k.o.8 &.8.8.1.,.8.{ Y #.<.~ i.x.x.c.j.=.=.d.x.c.c.c.c.c.c.c.c.x.c.c.5.T 0.>.>.k.z.c.r.-.$.$.8.( 7.",
"a.k.2.U &.T #.1.&.-.0.,.D _ T 6.k.c.c.c.i.( ..q.c.c.c.c.c.c.c.c.c.c.c.c.&./ [ #.a.k.a.{ <.k.6.' ) &."
};
