/* XPM */
static char *result[] = {
/* columns rows colors chars-per-pixel */
"50 50 92 1 ",
"  c #000000",
". c #080608",
"X c #070808",
"o c #0B0B0C",
"O c #11100F",
"+ c #0F0F10",
"@ c #131313",
"# c #181717",
"$ c #171817",
"% c #1B1B1B",
"& c #201F20",
"* c #232323",
"= c #282727",
"- c #272827",
"; c #2C2C2C",
": c #2F302F",
"> c #30302F",
", c #302F30",
"< c #2F3030",
"1 c #343434",
"2 c #373837",
"3 c #373738",
"4 c #373838",
"5 c #3B3B3B",
"6 c #403F3F",
"7 c #3F3F40",
"8 c #3F4040",
"9 c #434343",
"0 c #484747",
"q c #4B4B4B",
"w c #4F504F",
"e c #50504F",
"r c #535353",
"t c #5C5C5C",
"y c #5F5F60",
"u c #605F60",
"i c #646463",
"p c #686867",
"a c #676768",
"s c #686768",
"d c #6B6B6B",
"f c #70706F",
"g c #6F6F70",
"h c #747474",
"j c #777877",
"k c #777878",
"l c #7C7C7C",
"z c #848484",
"x c #8B8B8B",
"c c #8F908F",
"v c #90908F",
"b c #908F90",
"n c #949494",
"m c #9B9B9B",
"M c #9FA09F",
"N c #A0A09F",
"B c #A3A3A3",
"V c #A7A7A8",
"C c #A7A8A8",
"Z c #ABABAB",
"A c #B0B0AF",
"S c #AFAFB0",
"D c #B3B4B3",
"F c #BBBBBB",
"G c #C0BFBF",
"H c #C0C0BF",
"J c #C4C4C4",
"K c #C8C7C8",
"L c #CCCCCC",
"P c #CFCFD0",
"I c #CFD0D0",
"U c #D3D3D3",
"Y c #DBDBDB",
"T c #E0E0DF",
"R c #DFE0E0",
"E c #E4E4E4",
"W c #E7E8E7",
"Q c #E7E7E8",
"! c #E8E7E8",
"~ c #ECECEC",
"^ c #F0EFEF",
"/ c #EFF0EF",
"( c #F0F0EF",
") c #F0EFF0",
"_ c #EFF0F0",
"` c #F4F4F4",
"' c #F8F7F7",
"] c #F7F8F7",
"[ c #F8F8F7",
"{ c #F7F7F8",
"} c #F7F8F8",
"| c #FDFDFD",
/* pixels */
"dmVdhfzs xFj;&-$qR|Ki; zQ|||``|}}~''Dhj9 ir12ld-jh",
"CDFxzfd99DHd-%1 x`|So;;n!}||'||~UZE||~Umt4o4 dz6CF",
"~~UFnt; 0BZFn&5zL||D%anDE'}||'YDDlDYE}|~YN455-;lBK",
"~[}YZd ;mYW~D-1D'|}m1lBZY|||Ym0%0;%dzK|||Id%0t8xZL",
"Y`}DirhxF`|~z B~||~z1ytdK}`Id zzDC0rrrS~|'BO0lthZL",
"FULB,;FLmLEKraJQ||`z 5 1tzjq#J~E`}YUUz C||~j j-%rn",
"lBBZa nYJIUB20D~}|~z01*<1dzhF|||||||[Qd%D'|U11xZx;",
"t5w0509nL~'D@1D|||Rz0athJ(}`|'E`||}|}'D %C(|UU`|}L",
"Yd5# dbBY~|Lq9L||`F09dmU'|||~mzL(''|||(Ci1m`|||~'|",
"|UxaaxF~YLLm7%L|'YZaatU|||}~C 1NUQ'}||}'K1 C'|}EY~",
"}}JDKBK`Jpfnw=Y|~LFFjgY||QYYzaDL~}||||||}Kr nY`EUQ",
"||'QQUDDzamFd0L}'~YZtjU||`~~UDY{||||||||||D05mEUK'",
"|||'~D9i5tNm;1m`||_B1-M~|||||~`||||||||}||}L1vYYQ}",
"||||Yt*=o=;9 tBQ||Emro;nU~`}||}|||||||||}||~l9G'||",
"'`||S #twthxZnmU}|Up1 5 dGU'`EQT~}||||}|||}Yl dL}`",
"FY||C iZDFE{}LnK_|Yzqxma9xL~IBmBFY}||/Y~||}Zo5dBLF",
"CY||H&lLE'||||`~~|`YY~YnqzUEIz tlZW||`Q~QYJi#znJGB",
"FL||Z ;L}|~Q}}|||||||||UnhDFFlt0jFW}|||'TLl dxtFPG",
"BI||H5qY|[!EYLQ||`'}`Q~|`Kntdxl0lZU'|}|}`~D=esrnZZ",
"m~|]EirU||`~YJE}|~~~~UU`||Di5di4lDDW|'~`][YuxBnral",
"K~|'UalL||'QEYQ`||~~'Y~~]|Knr99;lJZnYUE'}TFuBDn1kV",
"U~|'B1L'||}WUL~`}'~~EEUQ}|UM9  9nBl9ixJPBx01lxerBL",
"L}||U1D||||`~~}`|||}UUQ'||'KdkBmdq0140rt o*qqa5fln",
"Q|}|~hx}||}''!R'}|||`E`}|||QUEQH0 -* 1r=> rBmllFFZ",
"|[Q~`ml||||`~LHR'|^||||||||}|'~QC2qvnDz4tnF~`UY}}'",
"``YILxrU]||`~QLY~~~|||||||||||||YdrU'QFzKQ`||||||}",
"TRKBzt;mY~||||'`'/}||||||'~}]`|}A9fU''ELW||||||})Y",
"Bjnl* 1iBmY|~~'||||||||}}'YYLF`|D5dL``YY`||||[`}QD",
"= dt&4;5*qdDBxBL'|||}~}}`~EJxxT|QjiYW~(`|~EYUUGFv0",
"z4tr#*9mlo XX 2zU~``LLU^ELJCzzL|~x@mL~||EnDj;t6 &l",
"i#;;=1dUF015a01inZLUDUYQ^TnNDZU|Ya =D'}EN90 titadx",
"*;*9r z~F% sUC*qaxVncK'|||ET~Q`|~z#dF'|~Da10zxhBz ",
"**4tr nYFr9FQUh  9mrhL`|||||'~)||F6nZW|EJz*nCduvz*",
"=4*2&=nKLDB~~Ka tlmBJQ'|||||'QE}}LtdH'~Dxl DLmZBdr",
";dj9iimLLYY''F1tL~E~`}||~~}|}{{|`Jd1Y|Ftr6oCYEYLNa",
"XqBxq0nDY'}}}U1p~|||||'YLY'||||||F z/|Fro$ 8DEUUB0",
"&%rd> tmU}|~UB1Z||||||~DFUY'}QUYUzx~|~FDl;@ rxBl %",
"=o O0dNGEEQZ5 n}||||'YFlhxtxmt*;11Y|~UYFl%@6& ,r0@",
"@uu;hFTY`YLg1BY|||||Uaqdd 40tzNnhB~|QJYJxt*;%;alr.",
"2a0 xEQQ~~L0dY'||]`YBq 0rdCF~)'}`'||EDALUh%5@ 10;;",
">@ qJ~Q}'|Yj jY|||}Ym91X;mLL`|}~QWWYCtrBYz 6ls%11%",
"955zQ'~|||`Um m)|||QzO4dlfDYY|(Dt1xC6 1lBlr@ZD4td=",
"4pnL''||||||EzoK||}Ku#wmBBKU/|Lqet6s>9 dltqtKKr4jt",
"jzDQ||}}|||}`Ytx`|}L0 rmLT`}|`Il1h1*9qr;44 xUFs#dl",
"BDU`||~'||}|}Ex5L|}J#1nY~''|]~Yn4==1;11qBxinLFx11k",
"xC`|||||}RDFYKk*B|~d4rm~'}||~!QFx>*%4= mFNztnDn1 ;",
"tlKQ}|||YBi hc;iU|Y3rthY}||~~'[QD9 ;41lZBSFmZnq:5@",
"lj1dZUEYZl84q0%Z'|U0=dBU}|}YTEE}]Fa.1lldnVFFCr ir9",
"Bn% %rpt9i%@30 x~|`C59xBU||~ULE}|}Yh i19mSJl151r$d",
"xBt*9+;q41i0 1%9D`|Ulo@dL}||TY`||||U;@=1lMz rxr%%1"
};
